<svg xmlns="http://www.w3.org/2000/svg" width="105" height="103" viewBox="0 0 105 103">
  <g id="Group_12" data-name="Group 12" transform="translate(-59.955 -94.843)">
    <g id="Group_10" data-name="Group 10">
      <path id="Path_25" data-name="Path 25" d="M59.955,142.251V95.963h9.981v37.613H89.624v8.675Z" fill="#8c8c8c"/>
      <path id="Path_26" data-name="Path 26" d="M94.673,123.722V95.963h10.053v27.481c0,6.455,3.77,10.9,10.963,10.9s10.894-4.442,10.894-10.9V95.963H136.7v27.759c0,11.451-6.841,19.364-21.016,19.364S94.673,135.173,94.673,123.722Z" fill="#8c8c8c"/>
      <path id="Path_27" data-name="Path 27" d="M60.373,197.008V150.717H82.158c10.118,0,15.64,6.8,15.64,14.921,0,8.049-5.587,14.855-15.64,14.855H70.285v16.515Zm27.3-31.37c0-3.888-3-6.247-6.915-6.247H70.285v12.421H80.759C84.67,171.812,87.674,169.458,87.674,165.638Z" fill="#8c8c8c"/>
      <path id="Path_28" data-name="Path 28" d="M100.821,190.483l5.446-7.7a20.539,20.539,0,0,0,14.8,6.314c5.515,0,8.1-2.428,8.1-5.133,0-8.052-26.813-2.428-26.813-19.851,0-7.7,6.705-14.087,17.666-14.087,7.4,0,13.546,2.22,18.15,6.449l-5.512,7.361a20.071,20.071,0,0,0-13.544-5.068c-4.192,0-6.564,1.8-6.564,4.58,0,7.291,26.738,2.358,26.738,19.641,0,8.47-6.141,14.856-18.638,14.856C111.642,197.843,105.223,194.859,100.821,190.483Z" fill="#8c8c8c"/>
    </g>
    <g id="Group_11" data-name="Group 11">
      <path id="Path_29" data-name="Path 29" d="M146.676,189.456a12.344,12.344,0,0,0,.4,1.482A9.366,9.366,0,0,0,155.605,197c5.159,0,9.35-4.592,9.35-10.227,0-.341-.015-.692-.044-1.033-.067-2.08-1.062-7.895-8.792-17.388a.688.688,0,0,0-1.026,0,57.53,57.53,0,0,0-5.441,7.808A18.869,18.869,0,0,0,146.676,189.456Zm16.92-3.617c.027.313.041.63.041.935,0,4.915-3.6,8.912-8.031,8.912s-8.026-4-8.026-8.912a8.76,8.76,0,0,1,.044-.935l0-.038c.053-1.885.948-7.151,7.98-15.982,7.034,8.831,7.928,14.1,7.986,15.982Z" fill="#8c8c8c"/>
      <path id="Path_30" data-name="Path 30" d="M159.025,177.961a.7.7,0,0,0-.344.918,44.065,44.065,0,0,1,2.156,5.992.7.7,0,0,0,.669.494.561.561,0,0,0,.2-.031.683.683,0,0,0,.468-.856,45.656,45.656,0,0,0-2.228-6.17A.694.694,0,0,0,159.025,177.961Z" fill="#8c8c8c"/>
      <path id="Path_31" data-name="Path 31" d="M160.921,186.922a.892.892,0,1,0,.906-.9A.9.9,0,0,0,160.921,186.922Z" fill="#8c8c8c"/>
    </g>
    <path id="Path_32" data-name="Path 32" d="M158.267,155.805c0,2.122-.53,3.841-2.665,3.841h0c-2.133,0-2.79-1.718-2.79-3.841l-3.5-57.817c0-2.122,4.157-3.145,6.291-3.145h0c2.135,0,6.53,1.023,6.53,3.145Z" fill="#8c8c8c"/>
  </g>
</svg>
